<?xml version="1.0" encoding="UTF-8"?>
<svg width="39px" height="40px" viewBox="0 0 39 40" version="1.1" xmlns="http://www.w3.org/2000/svg" xmlns:xlink="http://www.w3.org/1999/xlink">
    <!-- Generator: Sketch 41.1 (35376) - http://www.bohemiancoding.com/sketch -->
    <title>ic-money</title>
    <desc>Created with Sketch.</desc>
    <defs></defs>
    <g id="Master-File" stroke="none" stroke-width="1" fill="none" fill-rule="evenodd">
        <g id="Main-Page" transform="translate(-580.000000, -5722.000000)">
            <g id="Benefits" transform="translate(0.000000, 5681.000000)">
                <g id="Money-back" transform="translate(501.000000, 20.000000)">
                    <g id="ic-money" transform="translate(78.500000, 21.000000)">
                        <rect id="container" x="0" y="0" width="40" height="40" rx="3"></rect>
                        <g transform="translate(1.111111, 0.000000)" fill="#243238">
                            <path d="M17.7483333,39.6416667 C16.7727778,39.6416667 15.9538889,39.4927778 15.4461111,39.2361111 C13.8383333,38.8183333 12.5538889,38.4105556 11.4194444,38.0494444 C8.54611111,37.135 6.81277778,36.585 3.38055556,37.0216667 C2.94722222,37.0761111 2.54277778,36.7694444 2.485,36.3305556 C2.42944444,35.8927778 2.73944444,35.4916667 3.17722222,35.4361111 C6.96055556,34.9483333 8.92722222,35.575 11.905,36.525 C13.0427778,36.8861111 14.3305556,37.2972222 15.9405556,37.7116667 C16.0138889,37.7316667 16.085,37.7605556 16.1505556,37.7994444 C16.8716667,38.2272222 20.165,38.2438889 22.6716667,36.6627778 L35.6527778,28.4616667 C36.0172222,28.2727778 36.0616667,28.0061111 36.0616667,27.8605556 C36.0616667,27.6394444 35.9527778,27.3483333 35.6472222,27.1927778 C35.0383333,26.8827778 33.9794444,27.2072222 32.8083333,28.0572222 C32.5216667,28.2661111 32.1294444,28.2605556 31.8483333,28.0427778 C31.5672222,27.825 31.4638889,27.4472222 31.595,27.1161111 C31.8216667,26.5405556 31.8172222,26.0461111 31.5816667,25.8583333 C31.2905556,25.625 30.5383333,25.6783333 29.575,26.3394444 L28.7494444,26.905 C28.505,27.0716667 28.1872222,27.0894444 27.9261111,26.9538889 C27.6638889,26.8172222 27.4994444,26.5461111 27.4972222,26.2494444 C27.495,25.9272222 27.4316667,25.6816667 27.3338889,25.6238889 C27.1727778,25.5283333 26.5316667,25.5227778 25.2616667,26.1972222 L22.1038889,27.8772222 C22.6838889,27.8905556 23.3372222,27.9127778 24.0883333,27.9572222 C25.0438889,28.0138889 25.8483333,28.7661111 26.0005556,29.745 C26.1294444,30.5738889 25.7572222,31.6527778 24.3283333,32.2027778 C18.9461111,34.665 15.4938889,33.305 11.2094444,31.1105556 C10.8161111,30.9094444 10.6605556,30.4283333 10.8616667,30.0338889 C11.0638889,29.6416667 11.5461111,29.4872222 11.9383333,29.6872222 C16.6127778,32.0794444 19.2816667,32.7538889 23.7083333,30.7283333 C24.0272222,30.605 24.4783333,30.3705556 24.4194444,29.9905556 C24.3838889,29.7661111 24.1894444,29.5661111 23.9938889,29.555 C22.9216667,29.4905556 22.055,29.4738889 21.3161111,29.4616667 C18.325,29.405 17.205,29.3838889 13.4361111,26.5916667 L10.2061111,24.1983333 C9.85833333,23.9416667 8.45277778,23.7361111 7.11611111,24.2805556 L1.155,26.7038889 C0.743888889,26.8705556 0.278333333,26.6727778 0.112777778,26.265 C-0.0538888889,25.8538889 0.142777778,25.3883333 0.552777778,25.2216667 L6.51388889,22.7983333 C8.13944444,22.1394444 10.1794444,22.1905556 11.1583333,22.9127778 L14.3894444,25.3061111 C16.7616667,27.0638889 17.8383333,27.5872222 19.2672222,27.7605556 C19.3372222,27.6061111 19.4583333,27.4727778 19.6205556,27.385 L24.5116667,24.785 C26.1038889,23.9383333 27.3283333,23.7594444 28.1538889,24.2494444 C28.375,24.3816667 28.6183333,24.5938889 28.8027778,24.9316667 C30.2283333,24.005 31.6661111,23.8783333 32.5794444,24.6083333 C32.9861111,24.9316667 33.2372222,25.3794444 33.3261111,25.9016667 C34.8283333,25.2327778 35.8427778,25.495 36.3738889,25.7661111 C37.1694444,26.1727778 37.6627778,26.975 37.6616667,27.8616667 C37.6605556,28.7216667 37.205,29.4638889 36.4416667,29.8505556 L23.5261111,38.015 C21.6872222,39.1761111 19.4738889,39.6416667 17.7483333,39.6416667 L17.7483333,39.6416667 Z" id="Path"></path>
                            <path d="M18.8572222,20.8433333 C13.1105556,20.8433333 8.43611111,16.1688889 8.43611111,10.4222222 C8.43611111,4.67555556 13.1105556,0 18.8572222,0 C24.605,0 29.2805556,4.67555556 29.2805556,10.4222222 C29.2805556,16.1688889 24.605,20.8433333 18.8572222,20.8433333 Z M18.8572222,1.6 C13.9927778,1.6 10.0361111,5.55777778 10.0361111,10.4222222 C10.0361111,15.2866667 13.9927778,19.2444444 18.8572222,19.2444444 C23.7227778,19.2444444 27.6794444,15.2866667 27.6794444,10.4222222 C27.6794444,5.55777778 23.7227778,1.6 18.8572222,1.6 Z M18.8572222,17.7922222 C18.4161111,17.7922222 18.0572222,17.4344444 18.0572222,16.9922222 L18.0572222,15.2911111 C17.3205556,15.1611111 16.5994444,14.92 15.8438889,14.6677778 L15.665,14.61 C15.2461111,14.4711111 15.0183333,14.0177778 15.1572222,13.5988889 C15.2972222,13.1788889 15.7505556,12.9544444 16.1683333,13.0911111 L16.3483333,13.15 C17.2072222,13.4366667 17.9483333,13.6833333 18.6716667,13.7644444 C20.1394444,13.9288889 21.0083333,13.4933333 21.3261111,13.0266667 C21.5116667,12.7544444 21.5316667,12.4511111 21.385,12.1722222 C21.1394444,11.7122222 20.3605556,11.2222222 18.9083333,11.2222222 C18.8916667,11.2211111 18.8761111,11.2222222 18.8616667,11.2222222 C16.9572222,11.2222222 15.5194444,10.5688889 14.9127778,9.42888889 C14.4916667,8.63444444 14.5483333,7.70444444 15.0672222,6.94222222 C15.6572222,6.07444444 16.7338889,5.55222222 18.0572222,5.45888889 L18.0572222,3.85222222 C18.0572222,3.41111111 18.4161111,3.05222222 18.8572222,3.05222222 C19.2994444,3.05222222 19.6572222,3.41111111 19.6572222,3.85222222 L19.6572222,5.54444444 C20.4116667,5.67222222 21.1505556,5.91777778 21.9261111,6.17666667 L22.1038889,6.23555556 C22.5227778,6.37555556 22.7494444,6.82777778 22.6105556,7.24666667 C22.4716667,7.66666667 22.0216667,7.89111111 21.5983333,7.75444444 L21.4216667,7.69444444 C20.5594444,7.40777778 19.815,7.16 19.0916667,7.07888889 C17.5972222,6.91 16.7161111,7.36333333 16.3894444,7.84222222 C16.2594444,8.03444444 16.1438889,8.33333333 16.3261111,8.67777778 C16.5705556,9.13777778 17.3516667,9.62444444 18.8816667,9.62222222 L18.9072222,9.62222222 C20.7727778,9.62222222 22.1894444,10.2777778 22.7983333,11.4233333 C23.225,12.2266667 23.1694444,13.1633333 22.6483333,13.9266667 C22.0616667,14.79 20.9838889,15.3044444 19.6572222,15.3877778 L19.6572222,16.9922222 C19.6572222,17.4344444 19.2994444,17.7922222 18.8572222,17.7922222 Z" id="Combined-Shape"></path>
                        </g>
                    </g>
                </g>
            </g>
        </g>
    </g>
</svg>