<?xml version="1.0" encoding="UTF-8"?>
<svg width="40px" height="38px" viewBox="0 0 40 38" version="1.1" xmlns="http://www.w3.org/2000/svg" xmlns:xlink="http://www.w3.org/1999/xlink">
    <!-- Generator: Sketch 41.1 (35376) - http://www.bohemiancoding.com/sketch -->
    <title>icn-payment</title>
    <desc>Created with Sketch.</desc>
    <defs></defs>
    <g id="Master-File" stroke="none" stroke-width="1" fill="none" fill-rule="evenodd">
        <g id="Main-Page" transform="translate(-825.000000, -4030.000000)" fill="#243238">
            <g id="Personal-Consultant" transform="translate(0.000000, 3812.000000)">
                <g id="Benefit-4" transform="translate(825.000000, 207.000000)">
                    <g id="icn-payment" transform="translate(0.000000, 11.000000)">
                        <path d="M8.45294118,23.4823529 L5.07058824,23.4823529 C4.60352941,23.4823529 4.22352941,23.1023529 4.22352941,22.6352941 C4.22352941,22.1670588 4.60352941,21.7882353 5.07058824,21.7882353 L8.45294118,21.7882353 C8.92,21.7882353 9.3,22.1670588 9.3,22.6352941 C9.3,23.1023529 8.92,23.4823529 8.45294118,23.4823529 L8.45294118,23.4823529 Z M16.7764706,23.4823529 L12.5694118,23.4823529 C12.1023529,23.4823529 11.7223529,23.1023529 11.7223529,22.6352941 C11.7223529,22.1670588 12.1023529,21.7882353 12.5694118,21.7882353 L16.7764706,21.7882353 C17.2447059,21.7882353 17.6235294,22.1670588 17.6235294,22.6352941 C17.6235294,23.1023529 17.2447059,23.4823529 16.7764706,23.4823529 L16.7764706,23.4823529 Z M1.69411765,6.27647059 L38.0176471,6.27647059 L38.0176471,3.83882353 C38.0176471,2.65529412 37.0552941,1.69411765 35.8729412,1.69411765 L3.83882353,1.69411765 C2.65647059,1.69411765 1.69411765,2.65529412 1.69411765,3.83882353 L1.69411765,6.27647059 L1.69411765,6.27647059 Z M1.69411765,11.1470588 L38.0176471,11.1470588 L38.0176471,7.97176471 L1.69411765,7.97176471 L1.69411765,11.1470588 L1.69411765,11.1470588 Z M35.8729412,28.0752941 L34.5082353,28.0752941 C34.0411765,28.0752941 33.6623529,27.6964706 33.6623529,27.2282353 C33.6623529,26.7611765 34.0411765,26.3811765 34.5082353,26.3811765 L35.8729412,26.3811765 C37.0552941,26.3811765 38.0176471,25.4188235 38.0176471,24.2364706 L38.0176471,12.8411765 L1.69411765,12.8411765 L1.69411765,24.2364706 C1.69411765,25.4188235 2.65647059,26.3811765 3.83882353,26.3811765 L20.6258824,26.3811765 C21.0929412,26.3811765 21.4717647,26.7611765 21.4717647,27.2282353 C21.4717647,27.6964706 21.0929412,28.0752941 20.6258824,28.0752941 L3.83882353,28.0752941 C1.72235294,28.0752941 0,26.3529412 0,24.2364706 L0,3.83882353 C0,1.72117647 1.72235294,0 3.83882353,0 L35.8729412,0 C37.9882353,0 39.7105882,1.72117647 39.7105882,3.83882353 L39.7105882,24.2364706 C39.7105882,26.3529412 37.9882353,28.0752941 35.8729412,28.0752941 L35.8729412,28.0752941 Z" id="Fill-1"></path>
                        <path d="M22.0995294,24.4611765 C21.9971765,24.4611765 21.9112941,24.5470588 21.9112941,24.6494118 L21.9112941,33.1823529 C21.9112941,34.6188235 23.0807059,35.7882353 24.5171765,35.7882353 L30.9501176,35.7882353 C32.3865882,35.7882353 33.556,34.6188235 33.556,33.1823529 L33.556,24.6494118 C33.556,24.5494118 33.4677647,24.4611765 33.3677647,24.4611765 L22.0995294,24.4611765 Z M30.9501176,37.4823529 L24.5171765,37.4823529 C22.1465882,37.4823529 20.2171765,35.5541176 20.2171765,33.1823529 L20.2171765,24.6494118 C20.2171765,23.6117647 21.0618824,22.7670588 22.0995294,22.7670588 L33.3677647,22.7670588 C34.4054118,22.7670588 35.2501176,23.6117647 35.2501176,24.6494118 L35.2501176,33.1823529 C35.2501176,35.5541176 33.3207059,37.4823529 30.9501176,37.4823529 L30.9501176,37.4823529 Z" id="Fill-3"></path>
                        <path d="M32.1712941,24.2908235 C31.7030588,24.2908235 31.3242353,23.9108235 31.3242353,23.4437647 L31.3242353,20.2731765 C31.3242353,18.6849412 30.0312941,17.3931765 28.4442353,17.3931765 L27.0242353,17.3931765 C25.4348235,17.3931765 24.1418824,18.6849412 24.1418824,20.2731765 L24.1418824,23.4437647 C24.1418824,23.9108235 23.7630588,24.2908235 23.296,24.2908235 C22.8277647,24.2908235 22.4489412,23.9108235 22.4489412,23.4437647 L22.4489412,20.2731765 C22.4489412,17.7508235 24.5007059,15.6978824 27.0242353,15.6978824 L28.4442353,15.6978824 C30.9654118,15.6978824 33.0171765,17.7508235 33.0171765,20.2731765 L33.0171765,23.4437647 C33.0171765,23.9108235 32.6383529,24.2908235 32.1712941,24.2908235 L32.1712941,24.2908235 Z M27.7324706,33.212 C27.2654118,33.212 26.8854118,32.8331765 26.8854118,32.3649412 L26.8854118,30.3025882 C26.3242353,29.9990588 25.9430588,29.4049412 25.9430588,28.7237647 C25.9430588,27.7367059 26.7454118,26.932 27.7336471,26.932 C28.7218824,26.932 29.5254118,27.7367059 29.5254118,28.7237647 C29.5254118,29.4061176 29.1418824,30.0014118 28.5795294,30.3037647 L28.5795294,32.3649412 C28.5795294,32.8331765 28.2007059,33.212 27.7324706,33.212 L27.7324706,33.212 Z" id="Fill-5"></path>
                    </g>
                </g>
            </g>
        </g>
    </g>
</svg>