<?xml version="1.0" encoding="UTF-8"?>
<svg width="37px" height="41px" viewBox="0 0 37 41" version="1.1" xmlns="http://www.w3.org/2000/svg" xmlns:xlink="http://www.w3.org/1999/xlink">
    <!-- Generator: Sketch 41.1 (35376) - http://www.bohemiancoding.com/sketch -->
    <title>ic-quality</title>
    <desc>Created with Sketch.</desc>
    <defs></defs>
    <g id="Master-File" stroke="none" stroke-width="1" fill="none" fill-rule="evenodd">
        <g id="Main-Page" transform="translate(-384.000000, -5721.000000)">
            <g id="Benefits" transform="translate(0.000000, 5681.000000)">
                <g id="High-Quality" transform="translate(304.000000, 20.000000)">
                    <g id="ic-quality" transform="translate(78.000000, 20.000000)">
                        <rect id="container" x="0.5" y="0.555555556" width="40" height="40" rx="3"></rect>
                        <path d="M20.4993967,40.5555556 C20.3823538,40.5555556 20.265311,40.531423 20.1543013,40.4843645 C9.29224187,35.7821378 2.54598836,26.8941207 2.54598836,17.2869538 C2.54598836,14.8242273 2.55926126,12.357881 2.57494742,9.89153474 C2.58942695,7.42760169 2.60390648,4.96366865 2.60390648,2.4997356 C2.60390648,2.13533414 2.83195905,1.81075139 3.17343458,1.68405551 C3.51491012,1.55735964 3.89861762,1.65871634 4.13511658,1.93744726 C5.53963082,3.59173335 8.48138829,4.66080518 11.6306857,4.66080518 C15.3832967,4.66080518 18.7799527,3.13321496 19.7042293,1.02885686 C19.9817536,0.400204015 21.0158332,0.395377505 21.2957707,1.02885686 C22.2212539,3.13321496 25.6179099,4.66080518 29.370521,4.66080518 C32.5174051,4.66080518 35.4603692,3.59173335 36.86609,1.93744726 C37.102589,1.65871634 37.4862965,1.55735964 37.827772,1.68405551 C38.1692476,1.81075139 38.3960935,2.13533414 38.3960935,2.4997356 C38.3960935,4.96366865 38.4117797,7.42760169 38.4262592,9.89153474 C38.4407387,12.357881 38.4540116,14.8242273 38.4540116,17.2869538 C38.4540116,26.8941207 31.7065515,35.7821378 20.8456987,40.4843645 C20.734689,40.531423 20.6176462,40.5555556 20.4993967,40.5555556 Z M4.3390366,4.40620681 C4.33421009,6.23786713 4.32335045,8.06952744 4.31128417,9.90239439 C4.29801127,12.3651208 4.28232512,14.8266406 4.28232512,17.2869538 C4.28232512,26.0893003 10.4868029,34.2798867 20.4993967,38.7383748 C30.5131971,34.2798867 36.7176749,26.0893003 36.7176749,17.2869538 C36.7176749,14.8266406 36.7019887,12.3651208 36.6875092,9.90239439 C36.6778562,8.06952744 36.6669965,6.23786713 36.66217,4.40620681 C34.7955175,5.66109926 32.1723097,6.39714194 29.370521,6.39714194 C25.5539587,6.39714194 22.2055678,5.07950487 20.4993967,3.00772572 C18.7944322,5.07950487 15.447248,6.39714194 11.6306857,6.39714194 C8.82769034,6.39714194 6.20448249,5.66109926 4.3390366,4.40620681 Z M19.9334885,28.0138709 C19.6813033,28.0138709 19.4399779,27.9064811 19.2758766,27.7134207 L12.6587322,20.0501304 C12.3462157,19.6869356 12.3860344,19.1379201 12.7492292,18.824197 C13.1124241,18.5104739 13.6590262,18.5502926 13.973956,18.9134874 L19.8381649,25.7055928 L28.560874,12.3735672 C28.8239188,11.9717603 29.3584547,11.8583373 29.7638815,12.1225887 C30.1644818,12.3844268 30.2779047,12.9237893 30.01486,13.3255962 L20.6598781,27.621717 C20.5102563,27.8497696 20.2628977,27.9945649 19.9914066,28.0126643 C19.9721005,28.0138709 19.9515879,28.0138709 19.9334885,28.0138709 Z" id="Combined-Shape" fill="#243238"></path>
                    </g>
                </g>
            </g>
        </g>
    </g>
</svg>