<?xml version="1.0" encoding="UTF-8"?>
<svg width="40px" height="37px" viewBox="0 0 40 37" version="1.1" xmlns="http://www.w3.org/2000/svg" xmlns:xlink="http://www.w3.org/1999/xlink">
    <!-- Generator: Sketch 41.1 (35376) - http://www.bohemiancoding.com/sketch -->
    <title>ic-question</title>
    <desc>Created with Sketch.</desc>
    <defs>
        <path d="M10.3735962,30.5776941 L10.3735962,17.2116052 L20.4197714,8.4512 L23.4254857,2.37691429 C23.8940571,1.43062857 24.9077714,0.887771429 26.1512,0.958628571 C27.3546286,1.01577143 28.7946286,1.66834286 29.2997714,2.9952 C29.9980571,4.83291429 29.2529143,8.89805714 28.4323429,10.3814857 L26.5672,13.7437714 L34.9763429,13.2249143 C36.0826286,13.1483429 37.1683429,13.5483429 37.9660571,14.2980571 C38.6974857,14.9849143 39.0986286,15.8957714 39.0986286,16.8626286 C39.0986286,18.3654857 38.3580571,19.6660571 37.2220571,20.3689143 C37.4014857,20.7689143 37.5123429,21.2020571 37.5466286,21.6546286 C37.6426286,22.9414857 37.0780571,24.1574857 36.1249143,24.9369143 C36.4563429,25.4614857 36.6609143,26.0649143 36.7077714,26.6969143 C36.8049143,27.9849143 36.2403429,29.2009143 35.2872,29.9792 C35.6174857,30.5037714 35.8220571,31.1072 35.8689143,31.7392 C35.9500571,32.8054857 35.5832,33.8729143 34.8632,34.6683429 C34.1763429,35.4249143 33.2494857,35.8546286 32.2563429,35.8763429 L21.0986286,36.1197714 C21.0129143,36.1209143 20.9283429,36.1220571 20.8437714,36.1220571 C16.7546286,36.1220571 10.3735962,30.5776941 10.3735962,30.5776941 Z" id="path-1"></path>
        <mask id="mask-2" maskContentUnits="userSpaceOnUse" maskUnits="objectBoundingBox" x="0" y="0" width="28.7250324" height="35.1696053" fill="white">
            <use xlink:href="#path-1"></use>
        </mask>
        <path d="M8.95062857,36.1227429 L3.84548571,36.1227429 C2.0672,36.1227429 0.620342857,34.6770286 0.620342857,32.8976 L0.620342857,16.0610286 C0.620342857,14.2827429 2.0672,12.8358857 3.84548571,12.8358857 L8.95062857,12.8358857 C10.7289143,12.8358857 12.1757714,14.2827429 12.1757714,16.0610286 L12.1757714,32.8976 C12.1757714,34.6770286 10.7289143,36.1227429 8.95062857,36.1227429 L8.95062857,36.1227429 Z" id="path-3"></path>
        <mask id="mask-4" maskContentUnits="userSpaceOnUse" maskUnits="objectBoundingBox" x="0" y="0" width="11.5554286" height="23.2868571" fill="white">
            <use xlink:href="#path-3"></use>
        </mask>
    </defs>
    <g id="Master-File" stroke="none" stroke-width="1" fill="none" fill-rule="evenodd">
        <g id="Main-Page" transform="translate(-825.000000, -4230.000000)">
            <g id="Personal-Consultant" transform="translate(0.000000, 3812.000000)">
                <g id="Benefit-6" transform="translate(825.000000, 407.000000)">
                    <g id="Group-46" transform="translate(0.000000, 9.000000)">
                        <g id="ic-question">
                            <rect id="container" x="0" y="0.502749703" width="40" height="40"></rect>
                            <g id="ic-thumb" transform="translate(0.000000, 2.002750)">
                                <use id="Fill-44" stroke="#243238" mask="url(#mask-2)" stroke-width="3.6" xlink:href="#path-1"></use>
                                <use id="Fill-45" stroke="#243238" mask="url(#mask-4)" stroke-width="3.6" xlink:href="#path-3"></use>
                                <path d="M6.24891429,32.0907429 C5.11748571,32.0907429 4.19748571,31.1696 4.19748571,30.0393143 C4.19748571,28.9090286 5.11748571,27.9878857 6.24891429,27.9878857 C7.38034286,27.9878857 8.30034286,28.9090286 8.30034286,30.0393143 C8.30034286,31.1696 7.38034286,32.0907429 6.24891429,32.0907429 L6.24891429,32.0907429 Z" id="Path" fill="#243238"></path>
                            </g>
                        </g>
                    </g>
                </g>
            </g>
        </g>
    </g>
</svg>