<?xml version="1.0" encoding="UTF-8"?>
<svg width="40px" height="40px" viewBox="0 0 40 40" version="1.1" xmlns="http://www.w3.org/2000/svg" xmlns:xlink="http://www.w3.org/1999/xlink">
    <!-- Generator: Sketch 41.2 (35397) - http://www.bohemiancoding.com/sketch -->
    <title>ic-support</title>
    <desc>Created with Sketch.</desc>
    <defs>
        <path d="M6,6.03259007 L6,1.17284794 C6,0.543338183 6.50954657,0.0326038543 7.14024408,0.0326038543 L11.9886569,0.0326038543 L38.815809,1.77635684e-15 C39.4453188,8.8817842e-16 39.9560531,0.510734329 39.9560531,1.14024408 L39.9662084,19.7208184 L39.9662084,24.6143659 C39.9662084,25.2438756 39.4566618,25.75461 38.8259643,25.75461 L33.9662084,25.75461 L33.9662084,30.6143659 C33.9662084,31.2438756 33.4566618,31.75461 32.8259643,31.75461 L17.4766161,31.75461 L7.93182291,39.733943 C7.7215904,39.9097307 7.46265998,40 7.20016629,40 C7.0362562,40 6.87115836,39.9655551 6.71793806,39.8931021 C6.31647712,39.7054369 6.0599222,39.3027883 6.0599222,38.8597559 L6.0599222,31.75461 L1.14024408,31.75461 C0.509546575,31.75461 0,31.2438756 0,30.6143659 L0,7.17284794 C0,6.54333818 0.509546575,6.03260385 1.14024408,6.03260385 L5.98865695,6.03260385 L6,6.03259007 Z" id="path-1"></path>
        <mask id="mask-2" maskContentUnits="userSpaceOnUse" maskUnits="objectBoundingBox" x="0" y="0" width="39.9662084" height="40" fill="white">
            <use xlink:href="#path-1"></use>
        </mask>
        <path d="M6.71793806,39.8931021 C6.31647712,39.7054369 6.0599222,39.3027883 6.0599222,38.8597559 L6.0599222,31.75461 L1.14024408,31.75461 C0.509546575,31.75461 0,31.2438756 0,30.6143659 L0,7.17284794 C0,6.54333818 0.509546575,6.03260385 1.14024408,6.03260385 L5.98865695,6.03260385 L32.815809,6 C33.4453188,6 33.9560531,6.51073433 33.9560531,7.14024408 L33.9662084,25.7208184 L33.9662084,30.6143659 C33.9662084,31.2438756 33.4566618,31.75461 32.8259643,31.75461 L17.4766161,31.75461 L7.93182291,39.733943 C7.7215904,39.9097307 7.46265998,40 7.20016629,40 C7.0362562,40 6.87115836,39.9655551 6.71793806,39.8931021 Z" id="path-3"></path>
        <mask id="mask-4" maskContentUnits="userSpaceOnUse" maskUnits="objectBoundingBox" x="0" y="0" width="33.9662084" height="34" fill="white">
            <use xlink:href="#path-3"></use>
        </mask>
    </defs>
    <g id="Master-File" stroke="none" stroke-width="1" fill="none" fill-rule="evenodd">
        <g id="Artboard" transform="translate(-212.000000, -233.000000)">
            <g id="ic-support" transform="translate(212.000000, 233.000000)">
                <rect id="container" x="0" y="0" width="40" height="40" rx="3"></rect>
                <g id="Combined-Shape" stroke="#243238" stroke-width="3.6">
                    <use mask="url(#mask-2)" xlink:href="#path-1"></use>
                    <use mask="url(#mask-4)" xlink:href="#path-3"></use>
                </g>
            </g>
        </g>
    </g>
</svg>