<?xml version="1.0" encoding="utf-8"?>
<!-- Generated by IcoMoon.io -->
<!DOCTYPE svg PUBLIC "-//W3C//DTD SVG 1.1//EN" "http://www.w3.org/Graphics/SVG/1.1/DTD/svg11.dtd">
<svg version="1.1" xmlns="http://www.w3.org/2000/svg" xmlns:xlink="http://www.w3.org/1999/xlink" width="32" height="32" viewBox="0 0 32 32">
<path fill="#31c7f3" d="M1.6 0h28.8c0.884 0 1.6 0.716 1.6 1.6v28.8c0 0.884-0.716 1.6-1.6 1.6h-28.8c-0.884 0-1.6-0.716-1.6-1.6v-28.8c0-0.884 0.716-1.6 1.6-1.6z"></path>
<path fill="#fff" d="M3.104 6.529c0.046 0.076 0.272 0.452 0.504 0.839 0.55 0.938 0.885 1.372 1.464 1.94 1.892 1.84 5 2.772 10.058 3.011 0.654 0.028 2.292 0.058 3.652 0.058 2.61 0 3.588 0.047 4.711 0.234 1.956 0.328 2.569 0.914 2.060 1.958-0.243 0.498-0.747 1.112-1.973 2.408-0.579 0.608-1.233 1.325-1.447 1.582-0.428 0.508-1.117 1.5-1.071 1.542 0.029 0.035-0.133 0.171 3.015-2.574 3.605-3.135 4.427-3.955 4.838-4.827 0.243-0.534 0.215-0.896-0.104-1.225-0.463-0.463-1.516-0.744-3.437-0.914-0.365-0.035-2.686-0.088-5.151-0.117-5.579-0.064-7.726-0.17-9.809-0.475-3.136-0.458-5.226-1.437-7.002-3.27-0.295-0.311-0.451-0.393-0.307-0.17v0 0 0zM9.615 21.576c-0.399 0.071-0.753 0.263-1.024 0.562-0.376 0.408-0.492 0.721-0.492 1.308 0 0.642 0.15 1.002 0.584 1.4 0.723 0.668 1.811 0.668 2.535 0 0.434-0.398 0.585-0.758 0.585-1.4s-0.151-1.003-0.585-1.401c-0.44-0.4-1.013-0.57-1.603-0.47v0 0zM18.064 21.576c-0.596 0.106-1.128 0.525-1.389 1.102-0.185 0.398-0.179 1.155 0.011 1.582 0.179 0.404 0.65 0.849 1.060 0.984 0.393 0.135 0.92 0.129 1.313-0.006 0.445-0.147 0.93-0.642 1.105-1.114 0.162-0.444 0.139-1.020-0.058-1.482-0.318-0.75-1.204-1.214-2.042-1.066v0 0 0z"></path>
</svg>
